<svg width="475" height="468" viewBox="0 0 475 468" fill="none" xmlns="http://www.w3.org/2000/svg">
<g clip-path="url(#clip0_545_7643)">
<path opacity="0.2" d="M459.341 453.79C438.756 446.389 423.954 446.389 394.117 437.137C364.281 427.886 360.58 416.553 330.744 409.151C300.908 401.75 291.656 401.75 261.82 390.417C231.983 379.084 226.432 369.832 192.895 353.179C159.358 336.526 157.508 323.343 125.822 302.989C94.1348 282.405 109.169 269.452 84.8833 247.017C60.5979 224.582 66.1488 213.48 42.0947 183.644C27.986 166.297 11.3332 160.284 0 158.202V345.547C6.24482 345.547 12.0271 344.159 19.6596 341.846C38.3941 336.295 28.9112 336.295 47.6456 338.145C66.3801 339.996 58.7475 330.744 77.482 339.996C96.2164 349.247 98.0668 366.131 125.822 384.635C153.808 403.369 179.943 399.437 207.698 408.92C235.684 418.172 250.487 420.022 285.874 420.022C321.261 420.022 319.411 423.723 352.948 436.675C386.485 449.627 377.233 447.777 405.219 460.96C433.205 473.912 435.056 464.661 457.491 466.511C479.694 468.593 479.694 461.191 459.341 453.79Z" fill="white"/>
<path opacity="0.2" d="M144.556 228.283C129.753 217.181 133.454 213.48 123.971 203.997C114.488 194.515 99.6858 183.413 86.7336 168.61C73.7814 153.808 83.0329 148.025 73.7814 136.923C64.5298 125.822 64.5298 120.271 57.1285 105.237C49.7273 90.4342 51.5776 82.8017 36.5437 73.5501C21.7412 64.2985 30.9928 47.4144 17.8093 21.2786C12.7209 11.3332 6.01353 4.3945 0 0V118.189C13.4148 131.835 18.2719 129.522 42.0947 150.107C70.0807 174.392 56.8972 170.692 68.2304 185.494C79.3323 200.297 83.0329 202.147 105.468 217.181C127.903 231.983 122.121 231.983 144.556 241.466C166.991 250.718 174.392 265.752 178.093 258.119C181.794 250.718 159.358 239.385 144.556 228.283Z" fill="white"/>
</g>
<defs>
<clipPath id="clip0_545_7643">
<rect width="474.382" height="468" fill="white"/>
</clipPath>
</defs>
</svg>
