<svg width="462" height="468" viewBox="0 0 462 468" fill="none" xmlns="http://www.w3.org/2000/svg">
<g clip-path="url(#clip0_545_7646)">
<path opacity="0.2" d="M437.189 38.0052C431.227 58.1257 447.125 62.1001 439.176 76.0105C431.227 89.9209 421.291 76.0105 421.291 87.9337C421.291 99.8569 417.317 101.844 415.329 114.016C413.342 125.939 419.304 125.939 415.329 140.098C411.355 154.008 405.393 150.034 395.209 176.116C385.025 202.198 393.222 198.223 385.273 214.121C377.324 230.019 377.324 232.006 357.204 254.113C337.083 276.221 333.109 278.208 313.237 294.106C293.116 310.003 303.301 311.991 281.193 334.098C259.086 356.206 241.201 376.078 217.106 390.237C193.011 404.147 183.075 412.344 158.98 418.306C134.886 424.268 117.001 428.242 94.8931 438.426C72.7855 448.362 56.8878 450.35 52.9134 452.337C48.939 454.324 77.0083 456.311 104.829 448.362C132.898 440.414 124.95 446.375 162.955 434.452C200.96 422.529 193.011 426.503 238.965 404.396C284.919 382.288 280.945 362.416 311.001 352.48C341.058 342.544 356.955 330.372 367.14 316.462C377.076 302.551 373.101 296.341 397.196 294.354C421.291 292.367 431.227 284.418 435.201 274.234C439.176 264.298 453.086 258.336 462.029 254.113V0C452.838 10.6812 440.666 26.082 437.189 38.0052Z" fill="white"/>
<path opacity="0.2" d="M34.0352 452.337C34.0352 452.337 23.1056 444.388 17.144 451.343C11.1824 458.299 -1.98279 451.343 0.25281 459.292C2.24001 467.241 7.20802 470.222 16.1504 466.247C25.0928 462.273 32.048 464.26 36.2708 460.286C39.9968 456.311 34.0352 452.337 34.0352 452.337Z" fill="white"/>
<path opacity="0.2" d="M371.114 166.18C371.114 166.18 366.146 174.129 361.178 190.275C356.21 206.172 356.21 202.198 344.287 221.325C332.364 240.452 328.39 243.432 314.231 255.356C300.32 267.279 292.123 276.47 283.181 283.425C274.238 290.38 265.296 299.323 261.073 300.316C257.099 301.31 270.015 283.425 280.2 275.228C290.136 267.279 293.117 264.298 306.282 244.178C319.199 224.057 310.256 221.076 327.396 204.185C344.287 187.294 344.287 186.3 353.478 176.116C362.42 166.18 367.388 161.212 373.598 154.008C379.56 147.053 388.502 132.894 386.515 142.085C384.031 151.028 371.114 166.18 371.114 166.18Z" fill="white"/>
</g>
<defs>
<clipPath id="clip0_545_7646">
<rect width="462.029" height="468" fill="white"/>
</clipPath>
</defs>
</svg>
