<svg width="810" height="460" viewBox="0 0 810 460" fill="none" xmlns="http://www.w3.org/2000/svg">
<g clip-path="url(#clip0_545_7853)">
<path d="M69.6382 37.3256C68.264 35.2643 65.5156 35.6937 64.5709 38.0127C63.1967 41.1905 63.2826 46.6873 61.2213 49.6074C58.3011 53.73 50.9149 52.6135 51.0007 56.9937C51.0866 61.4598 58.6447 59.055 61.9943 63.1776C65.3439 67.3002 62.4237 75.2018 67.9205 75.9748C72.3866 76.576 69.1229 66.2695 74.4479 62.7482C79.687 59.2268 84.4108 61.2881 84.0673 56.9078C83.8096 52.957 74.8773 54.0736 72.7302 49.3498C71.0124 45.6566 71.6995 40.3316 69.6382 37.3256Z" fill="white"/>
<path d="M18.6382 163.326C17.264 161.264 14.5156 161.694 13.5709 164.013C12.1967 167.19 12.2826 172.687 10.2213 175.607C7.30111 179.73 -0.0851444 178.613 0.000742691 182.994C0.0866298 187.46 7.64468 185.055 10.9943 189.178C14.3439 193.3 11.4237 201.202 16.9205 201.975C21.3866 202.576 18.1229 192.27 23.4479 188.748C28.687 185.227 33.4108 187.288 33.0673 182.908C32.8096 178.957 23.8773 180.074 21.7302 175.35C20.0124 171.657 20.6995 166.332 18.6382 163.326Z" fill="white"/>
<path d="M794.638 134.326C793.264 132.264 790.516 132.694 789.571 135.013C788.197 138.19 788.283 143.687 786.221 146.607C783.301 150.73 775.915 149.613 776.001 153.994C776.087 158.46 783.645 156.055 786.994 160.178C790.344 164.3 787.424 172.202 792.92 172.975C797.387 173.576 794.123 163.27 799.448 159.748C804.687 156.227 809.411 158.288 809.067 153.908C808.81 149.957 799.877 151.074 797.73 146.35C796.012 142.657 796.699 137.332 794.638 134.326Z" fill="white"/>
<path d="M749.319 90.6628C748.632 89.6321 747.258 89.8469 746.785 91.0063C746.098 92.5952 746.141 95.3436 745.111 96.8037C743.651 98.865 739.957 98.3067 740 100.497C740.043 102.73 743.822 101.528 745.497 103.589C747.172 105.65 745.712 109.601 748.46 109.987C750.693 110.288 749.061 105.135 751.724 103.374C754.344 101.613 756.705 102.644 756.534 100.454C756.405 98.4785 751.939 99.0368 750.865 96.6749C750.006 94.8283 750.35 92.1658 749.319 90.6628Z" fill="white"/>
<path d="M621.591 0.397671C621.179 -0.220716 620.355 -0.0918848 620.071 0.603801C619.659 1.55715 619.685 3.20618 619.066 4.08223C618.19 5.319 615.974 4.98404 616 6.29811C616.026 7.63795 618.293 6.9165 619.298 8.15328C620.303 9.39005 619.427 11.7605 621.076 11.9924C622.416 12.1728 621.437 9.08086 623.034 8.02445C624.606 6.96804 626.023 7.58642 625.92 6.27235C625.843 5.08711 623.163 5.42207 622.519 4.00493C622.004 2.89699 622.21 1.29949 621.591 0.397671Z" fill="white"/>
<path d="M54.3191 219.663C53.632 218.632 52.2578 218.847 51.7854 220.006C51.0983 221.595 51.1413 224.344 50.1106 225.804C48.6506 227.865 44.9574 227.307 45.0004 229.497C45.0433 231.73 48.8223 230.528 50.4971 232.589C52.1719 234.65 50.7118 238.601 53.4602 238.987C55.6933 239.288 54.0615 234.135 56.724 232.374C59.3435 230.613 61.7054 231.644 61.5336 229.454C61.4048 227.479 56.9387 228.037 55.8651 225.675C55.0062 223.828 55.3497 221.166 54.3191 219.663Z" fill="white"/>
<path d="M44.5915 341.398C44.1792 340.779 43.3547 340.908 43.0713 341.604C42.659 342.557 42.6848 344.206 42.0664 345.082C41.1903 346.319 38.9745 345.984 39.0002 347.298C39.026 348.638 41.2934 347.917 42.2983 349.153C43.3032 350.39 42.4271 352.761 44.0761 352.992C45.416 353.173 44.4369 350.081 46.0344 349.024C47.6061 347.968 49.0232 348.586 48.9202 347.272C48.8429 346.087 46.1632 346.422 45.519 345.005C45.0037 343.897 45.2098 342.299 44.5915 341.398Z" fill="white"/>
<path d="M754.319 305.663C753.632 304.632 752.258 304.847 751.785 306.006C751.098 307.595 751.141 310.344 750.111 311.804C748.651 313.865 744.957 313.307 745 315.497C745.043 317.73 748.822 316.528 750.497 318.589C752.172 320.65 750.712 324.601 753.46 324.987C755.693 325.288 754.061 320.135 756.724 318.374C759.344 316.613 761.705 317.644 761.534 315.454C761.405 313.479 756.939 314.037 755.865 311.675C755.006 309.828 755.35 307.166 754.319 305.663Z" fill="white"/>
<path d="M738.319 409.663C737.632 408.632 736.258 408.847 735.785 410.006C735.098 411.595 735.141 414.344 734.111 415.804C732.651 417.865 728.957 417.307 729 419.497C729.043 421.73 732.822 420.528 734.497 422.589C736.172 424.65 734.712 428.601 737.46 428.987C739.693 429.288 738.061 424.135 740.724 422.374C743.344 420.613 745.705 421.644 745.534 419.454C745.405 417.479 740.939 418.037 739.865 415.675C739.006 413.828 739.35 411.166 738.319 409.663Z" fill="white"/>
<path d="M162.319 440.663C161.632 439.632 160.258 439.847 159.785 441.006C159.098 442.595 159.141 445.344 158.111 446.804C156.651 448.865 152.957 448.307 153 450.497C153.043 452.73 156.822 451.528 158.497 453.589C160.172 455.65 158.712 459.601 161.46 459.987C163.693 460.288 162.061 455.135 164.724 453.374C167.344 451.613 169.705 452.644 169.534 450.454C169.405 448.479 164.939 449.037 163.865 446.675C163.006 444.828 163.35 442.166 162.319 440.663Z" fill="white"/>
<path d="M328.319 20.6628C327.632 19.6321 326.258 19.8469 325.785 21.0063C325.098 22.5952 325.141 25.3436 324.111 26.8037C322.651 28.865 318.957 28.3067 319 30.4969C319.043 32.7299 322.822 31.5275 324.497 33.5888C326.172 35.6501 324.712 39.6009 327.46 39.9874C329.693 40.288 328.061 35.1348 330.724 33.3741C333.344 31.6134 335.705 32.644 335.534 30.4539C335.405 28.4785 330.939 29.0368 329.865 26.6749C329.006 24.8283 329.35 22.1658 328.319 20.6628Z" fill="white"/>
</g>
<defs>
<clipPath id="clip0_545_7853">
<rect width="809.085" height="460" fill="white"/>
</clipPath>
</defs>
</svg>
